<svg xmlns="http://www.w3.org/2000/svg" width="669" height="340" viewBox="0 0 669 340">
  <g fill="#62BDA9" fill-rule="evenodd">
    <path d="M667.393 339.746H2c-.83 0-1.5-.672-1.5-1.5s.67-1.5 1.5-1.5h665.393c.828 0 1.5.672 1.5 1.5s-.672 1.5-1.5 1.5M206.81 36c1.088 0 1.973-.885 1.973-1.972 0-1.088-.885-1.972-1.972-1.972s-1.972.884-1.972 1.972c0 1.087.885 1.972 1.973 1.972M364 9.247c.895 0 1.623-.728 1.623-1.623S364.895 6 364 6c-.896 0-1.624.73-1.624 1.624 0 .895.728 1.623 1.623 1.623M36.887 145.447c.896 0 1.624-.728 1.624-1.623s-.727-1.623-1.623-1.623c-.895 0-1.623.73-1.623 1.624 0 .895.728 1.623 1.623 1.623M259.99 172.462c-.895 0-1.623.728-1.623 1.623 0 .894.728 1.623 1.623 1.623s1.624-.73 1.624-1.623c0-.895-.73-1.623-1.624-1.623M565.174 119.61c0-.988-.804-1.79-1.792-1.79-.987 0-1.79.802-1.79 1.79s.803 1.79 1.79 1.79c.988 0 1.792-.802 1.792-1.79M456.72 43.684c1.31 0 2.376-1.066 2.376-2.377 0-1.31-1.067-2.377-2.377-2.377-1.312 0-2.378 1.067-2.378 2.377 0 1.31 1.066 2.377 2.377 2.377M75.827 11.156c.554.46 1.356.46 1.91 0l8.733-7.21 8.73 7.21c.553.46 1.355.46 1.91 0l8.736-7.21 8.736 7.21c.28.232.618.344.954.344.432 0 .86-.186 1.157-.545.528-.64.437-1.584-.2-2.112l-9.692-8c-.554-.458-1.355-.458-1.91 0l-8.735 7.212-8.73-7.21c-.554-.46-1.356-.46-1.91-.002l-8.733 7.212-8.728-7.21c-.64-.53-1.585-.44-2.112.2-.528.64-.438 1.584.2 2.11l9.685 8M288.092 81c.554.46 1.355.458 1.91 0l8.736-7.21 8.737 7.21c.28.23.618.344.954.344.43 0 .86-.186 1.156-.545.528-.64.437-1.586-.2-2.113l-9.693-8c-.554-.458-1.355-.458-1.91 0l-8.736 7.21-8.73-7.21c-.553-.458-1.355-.458-1.91 0l-8.732 7.21-8.73-7.21c-.638-.527-1.584-.438-2.11.202-.53.637-.44 1.583.2 2.11l9.685 8c.553.458 1.355.458 1.91 0l8.732-7.21 8.73 7.21M559.42 53.307c0-.828-.67-1.5-1.5-1.5h-11.037c-.828 0-1.5.672-1.5 1.5 0 .83.672 1.5 1.5 1.5h11.038c.83 0 1.5-.67 1.5-1.5M559.42 59.84c0-.83-.67-1.5-1.5-1.5h-5.518c-.828 0-1.5.67-1.5 1.5 0 .828.672 1.5 1.5 1.5h5.52c.827 0 1.5-.672 1.5-1.5M566.45 42.807h2.07c.828 0 1.5-.67 1.5-1.5 0-.828-.672-1.5-1.5-1.5h-2.07c-.83 0-1.5.672-1.5 1.5 0 .83.67 1.5 1.5 1.5"/>
    <path d="M569.063 48.39c.625 0 1.246.115 1.848.34.45.17.955.113 1.355-.153.4-.264.65-.705.672-1.185.185-4.264 3.67-7.604 7.935-7.604 4.15 0 7.553 3.115 7.92 7.245.066.758.69 1.346 1.45 1.367 2.877.08 5.13 2.393 5.13 5.266 0 2.91-2.367 5.276-5.276 5.276h-21.033c-2.91 0-5.275-2.367-5.275-5.276 0-2.91 2.366-5.275 5.275-5.275zm-9.782.194h3.266c-1.098 1.405-1.758 3.166-1.758 5.082 0 4.563 3.712 8.276 8.275 8.276h21.033c4.563 0 8.275-3.713 8.275-8.276 0-4.075-2.885-7.432-6.77-8.134-1.023-5.063-5.436-8.744-10.728-8.744-5.26 0-9.66 3.69-10.708 8.677-.364-.05-.732-.074-1.1-.074-.606 0-1.196.07-1.765.194h-8.02c-.827 0-1.5.672-1.5 1.5 0 .83.673 1.5 1.5 1.5zM147.527 153.41h.007l.158.008c.63.024 1.21-.358 1.444-.947 1.04-2.633 3.556-4.334 6.408-4.334 3.795 0 6.883 3.052 6.878 6.876l-.008.153c-.023.55.257 1.067.73 1.35.47.282 1.06.28 1.533.002 1.07-.634 2.288-.97 3.522-.97 3.795 0 6.882 3.054 6.882 6.806 0 3.75-3.087 6.804-6.883 6.804h-20.723c-4.392 0-7.965-3.533-7.965-7.876 0-4.34 3.57-7.87 8.015-7.87zm-14.89.79h6.54c-1.655 1.904-2.665 4.375-2.665 7.08 0 1.787.444 3.47 1.217 4.958h-5.093c-.83 0-1.5.672-1.5 1.5s.67 1.5 1.5 1.5h5.518c.51 0 .958-.256 1.23-.643 2.006 2.182 4.886 3.562 8.092 3.562H168.2c5.448 0 9.882-4.398 9.882-9.804 0-5.407-4.434-9.805-9.883-9.805-1.01 0-2.01.155-2.967.457-.908-4.483-4.907-7.87-9.69-7.87-3.74 0-7.08 2.047-8.77 5.294-1.188.074-2.32.346-3.38.77h-10.756c-.83 0-1.5.67-1.5 1.5 0 .827.67 1.5 1.5 1.5z"/>
    <path d="M122.47 160.146h11.037c.828 0 1.5-.67 1.5-1.5 0-.828-.672-1.5-1.5-1.5H122.47c-.83 0-1.5.672-1.5 1.5 0 .83.67 1.5 1.5 1.5M125.875 166.238c-.83 0-1.5.672-1.5 1.5s.67 1.5 1.5 1.5h1.16c.828 0 1.5-.672 1.5-1.5s-.672-1.5-1.5-1.5h-1.16M143.095 148.136h1.16c.828 0 1.5-.672 1.5-1.5s-.672-1.5-1.5-1.5h-1.16c-.83 0-1.5.672-1.5 1.5s.67 1.5 1.5 1.5M475.306 208.738c0-.828-.672-1.5-1.5-1.5h-1.423v-1.423c0-.828-.672-1.5-1.5-1.5s-1.5.672-1.5 1.5v1.423h-1.423c-.828 0-1.5.672-1.5 1.5s.672 1.5 1.5 1.5h1.423v1.423c0 .83.672 1.5 1.5 1.5s1.5-.67 1.5-1.5v-1.422h1.423c.828 0 1.5-.672 1.5-1.5M361.077 281.585h1.423v1.423c0 .828.672 1.5 1.5 1.5s1.5-.672 1.5-1.5v-1.423h1.423c.828 0 1.5-.672 1.5-1.5s-.672-1.5-1.5-1.5H365.5v-1.423c0-.828-.672-1.5-1.5-1.5s-1.5.672-1.5 1.5v1.423h-1.423c-.828 0-1.5.672-1.5 1.5s.672 1.5 1.5 1.5M31.042 240.092h1.423v1.423c0 .828.67 1.5 1.5 1.5s1.5-.672 1.5-1.5v-1.423h1.423c.828 0 1.5-.672 1.5-1.5s-.672-1.5-1.5-1.5h-1.423v-1.423c0-.83-.67-1.5-1.5-1.5s-1.5.67-1.5 1.5v1.422h-1.423c-.83 0-1.5.672-1.5 1.5s.67 1.5 1.5 1.5M645.803 255.142h.3v.3c0 .83.67 1.5 1.5 1.5.828 0 1.5-.67 1.5-1.5v-.3h.3c.83 0 1.5-.672 1.5-1.5 0-.83-.67-1.5-1.5-1.5h-.3v-.302c0-.828-.672-1.5-1.5-1.5-.83 0-1.5.672-1.5 1.5v.302h-.3c-.828 0-1.5.67-1.5 1.5 0 .828.672 1.5 1.5 1.5M188.925 246.29h.3v.3c0 .828.67 1.5 1.5 1.5.828 0 1.5-.672 1.5-1.5v-.3h.3c.83 0 1.5-.673 1.5-1.5 0-.83-.67-1.5-1.5-1.5h-.3v-.303c0-.828-.672-1.5-1.5-1.5-.83 0-1.5.672-1.5 1.5v.302h-.3c-.83 0-1.5.67-1.5 1.5 0 .827.67 1.5 1.5 1.5M115.536 103.134c-.828 0-1.5.672-1.5 1.5v.302h-.3c-.83 0-1.5.67-1.5 1.5s.67 1.5 1.5 1.5h.3v.3c0 .83.672 1.5 1.5 1.5.83 0 1.5-.67 1.5-1.5v-.3h.302c.83 0 1.5-.67 1.5-1.5s-.67-1.5-1.5-1.5h-.302v-.302c0-.828-.67-1.5-1.5-1.5M629.8 60.743h-.3v-.3c0-.83-.672-1.5-1.5-1.5s-1.5.67-1.5 1.5v.3h-.3c-.83 0-1.5.67-1.5 1.5 0 .828.67 1.5 1.5 1.5h.3v.3c0 .83.672 1.5 1.5 1.5s1.5-.67 1.5-1.5v-.3h.3c.83 0 1.5-.672 1.5-1.5 0-.83-.67-1.5-1.5-1.5M33.965 319.66c-.83 0-1.5.67-1.5 1.5v2.082c0 .828.67 1.5 1.5 1.5s1.5-.672 1.5-1.5v-2.083c0-.83-.67-1.5-1.5-1.5M51.523 318.573c-.828 0-1.5.672-1.5 1.5v7.608c0 .83.672 1.5 1.5 1.5.83 0 1.5-.67 1.5-1.5v-7.607c0-.828-.67-1.5-1.5-1.5M60.303 324.16c-.83 0-1.5.67-1.5 1.5v1.947c0 .83.67 1.5 1.5 1.5.828 0 1.5-.67 1.5-1.5v-1.948c0-.83-.672-1.5-1.5-1.5M86.64 327.67c-.828 0-1.5.673-1.5 1.5v.346c0 .828.672 1.5 1.5 1.5.83 0 1.5-.672 1.5-1.5v-.345c0-.827-.67-1.5-1.5-1.5M174.434 329.153c-.83 0-1.5.672-1.5 1.5v.345c0 .828.67 1.5 1.5 1.5.828 0 1.5-.672 1.5-1.5v-.345c0-.828-.672-1.5-1.5-1.5"/>
    <path d="M238.596 330.154h-.925l10.202-10.466.49.448-9.766 10.018zm4.572 3v3.592h-5.78v-1.2c0-.828-.67-1.5-1.5-1.5-.828 0-1.5.672-1.5 1.5v1.2h-5.78v-3.592H243.168zm3 3.592h2.246v-3.592h-2.246v3.592zm-3.562-21.867l3.05 2.783-12.174 12.49h-5.762l14.886-15.274zm-16.997 21.866h-5.78v-1.075c0-.827-.67-1.5-1.5-1.5s-1.5.673-1.5 1.5v1.076h-5.78v-2.368c0-.828-.67-1.5-1.5-1.5-.828 0-1.5.672-1.5 1.5v2.368h-5.78v-3.67c0-.83-.67-1.5-1.5-1.5-.827 0-1.5.67-1.5 1.5v3.67h-5.778v-5.092c0-.828-.67-1.5-1.5-1.5-.828 0-1.5.672-1.5 1.5v5.092h-5.78v-5.504c0-.828-.67-1.5-1.5-1.5-.828 0-1.5.672-1.5 1.5v5.504h-5.778v-1.075c0-.827-.672-1.5-1.5-1.5-.83 0-1.5.673-1.5 1.5v1.076h-5.78v-6.983c0-.828-.67-1.5-1.5-1.5-.828 0-1.5.672-1.5 1.5v6.983h-5.78v-4.92c0-.83-.67-1.5-1.5-1.5-.828 0-1.5.67-1.5 1.5v4.92h-5.778v-1.075c0-.827-.672-1.5-1.5-1.5-.83 0-1.5.673-1.5 1.5v1.076h-5.78v-1.825c0-.827-.67-1.5-1.5-1.5-.828 0-1.5.673-1.5 1.5v1.826h-5.78v-6.005c0-.827-.67-1.5-1.5-1.5-.828 0-1.5.673-1.5 1.5v6.006h-5.778v-5.23c0-.828-.672-1.5-1.5-1.5-.83 0-1.5.672-1.5 1.5v5.23h-5.78v-1.075c0-.827-.67-1.5-1.5-1.5-.828 0-1.5.673-1.5 1.5v1.076h-5.78v-5.983c0-.828-.67-1.5-1.5-1.5-.827 0-1.5.672-1.5 1.5v5.983H96.92v-4.17c0-.83-.67-1.5-1.5-1.5s-1.5.67-1.5 1.5v4.17h-5.78v-1.075c0-.827-.67-1.5-1.5-1.5-.828 0-1.5.673-1.5 1.5v1.076h-5.78v-6.983c0-.828-.67-1.5-1.5-1.5-.827 0-1.5.672-1.5 1.5v6.983h-5.778v-4.92c0-.83-.67-1.5-1.5-1.5s-1.5.67-1.5 1.5v4.92h-5.78v-3.42c0-.828-.67-1.5-1.5-1.5-.828 0-1.5.672-1.5 1.5v3.42h-5.78v-2.254c0-.828-.67-1.5-1.5-1.5-.827 0-1.5.672-1.5 1.5v2.254h-5.778v-11.92c0-.828-.67-1.5-1.5-1.5s-1.5.672-1.5 1.5v11.92h-5.78v-3.837c0-.83-.67-1.5-1.5-1.5-.828 0-1.5.67-1.5 1.5v3.836H27.81v-19.404h8.743c.31 0 .615-.097.868-.278l4.628-3.286h8.344l2.105.874.006.003 16.384 6.804c.182.074.378.113.575.113h11.423l12.534 5.71c.194.09.407.136.62.136h103.187l16.9 5.657.054.01.072.025c.116.03.234.042.352.042h11.005v3.592zM34.93 284.08c4.505-.566 16.384-1.578 28.487 1.392l.903 5.09-18.255 19.052L34.93 284.08zm32.915 26.363l.887 5-1.874 1.924-4.102-1.703 5.09-5.22zm-15.153 1.04l-1.425-.59c-.183-.076-.378-.115-.576-.115h-1.585l15.864-16.554.7 3.945-12.978 13.314zm13.622-9.677l.886 5-7.426 7.62-4.1-1.703 10.64-10.917zm23.123-25.46l1.605 7.276c-6.365 10.952-15.22 25.682-19.186 32.26l-5.645-31.84-.005-.035-2.264-12.766c4.63.395 16.738 1.706 25.497 5.107zm9.493 43.037l1.063 4.82-.21.216h-5.416l-.24-.11 4.803-4.927zm-1.836-8.325l1.063 4.82-6.93 7.11-3.99-1.817 9.857-10.112zm-1.836-8.325l1.063 4.82-11.983 12.296-2.504-1.142c-.195-.09-.408-.135-.622-.135h-1.39l15.438-15.84zm-8.687-5.592c1.85-3.116 3.698-6.245 5.425-9.197l.653 2.96-6.077 6.238zm6.85-2.73l1.064 4.82-18.853 19.343h-1.895c1.353-2.24 3.593-5.958 6.225-10.35l13.46-13.814zm19.602 26.632l-3.292 3.377h-2.013c1.55-.953 3.34-2.095 5.305-3.378zM87.004 251.39c9.215 2.1 44.67 12.18 56.69 44.89-28.09 19.885-37.605 25.755-40.726 27.482l-10.766-48.81-.01-.043-5.188-23.52zm32.676 73.03h-5.76l11.26-11.554c6.1-4.185 12.49-8.66 17.966-12.525l-23.466 24.08zm27.52-23.94c1.01.933 2.02 1.87 3.03 2.802l-20.6 21.137h-5.76l23.33-23.94zm20.976 19.31c1.11 1.02 2.13 1.95 3.045 2.787l-1.794 1.842h-5.76l4.51-4.63zm-5.254-4.816c1.056.968 2.074 1.902 3.04 2.79l-6.485 6.655h-5.76l9.205-9.446zm-23.344 9.445h-5.76l18.616-19.102 3.033 2.798-15.89 16.303zm18.096-14.27l3.038 2.793-11.185 11.476h-5.76l13.907-14.27zm25.96-24.584c5.398 0 9.758.59 12.11.994l-19.075 36.932c-4.214-3.846-16.937-15.477-28.902-26.58 11.772-9.343 25.913-11.346 35.867-11.346zm-3.853 38.438l6.367-12.326 2.298 3.436-8.664 8.89zm10.37-6.34l2.342 3.505-3.168 3.25h-5.76l6.585-6.756zm4.514 6.755h-1.15l.682-.7.468.7zm8.745-16.368l-6.237 14.722-9.453-14.142 2.41-4.663c4.066.73 9.223 1.985 13.28 4.082zm2.104 4.053l1.625 4.245-7.05 7.233 4.426-10.452.998-1.025zm.88 15.22l-4.344-1.455 6.27-6.434 1.625 4.244-3.55 3.644zm4.732-.56l.94 2.46-2.514-.843 1.574-1.616zm29.264-13.91l-16.86 17.3h-5.008c4.308-3.862 12.717-11.39 20.64-18.423l1.228 1.122zm-.58-11.308c2.057 0 4.066.1 6.006.297-10.282 9.04-25.61 22.77-30.59 27.237l-7.987-20.86c4.212-1.68 17.965-6.673 32.57-6.673zm9.062 14.99l-.01-.015-.023-.014-5.244-4.788-.002-.003-.004-.003-2.173-1.984c3.222-2.854 6.284-5.556 8.86-7.807.436-.38.614-.98.455-1.54-.16-.557-.625-.974-1.197-1.07-3.065-.508-6.338-.766-9.726-.766-16.29 0-31.093 5.79-34.423 7.184-4.182-2.298-9.482-3.714-13.82-4.547l7.76-15.025c.213-.41.224-.894.03-1.314-.19-.42-.566-.727-1.015-.833-.247-.06-6.165-1.444-14.707-1.444-10.362 0-25.067 2.11-37.455 11.804-14.754-38.395-60.428-46.32-60.896-46.396-.492-.078-.99.088-1.332.45-.342.36-.483.867-.376 1.353l5.093 23.09c-11.232-3.853-25.795-4.726-26.458-4.764-.46-.012-.902.16-1.207.5-.304.344-.435.808-.355 1.26l2.196 12.385c-15.414-3.462-29.713-.957-30.342-.845-.452.082-.84.366-1.057.77-.216.405-.235.886-.052 1.306L43.3 310.777h-1.73c-.312 0-.615.097-.87.278l-4.626 3.286H26.31c-.828 0-1.5.672-1.5 1.5v22.404c0 .828.672 1.5 1.5 1.5h223.604c.83 0 1.5-.672 1.5-1.5v-6.592c0-.828-.67-1.5-1.5-1.5h-7.128l8.807-9.034c.283-.29.437-.684.425-1.09-.012-.406-.188-.79-.488-1.064l-2.658-2.428zM130.985 243.555c-.683-.472-1.617-.3-2.087.382-.47.68-.3 1.616.382 2.086 7.398 5.11 13.82 10.97 19.083 17.418.297.365.728.553 1.163.553.334 0 .67-.11.948-.338.642-.524.737-1.468.214-2.11-5.444-6.668-12.073-12.72-19.703-17.99M95.143 226.75c-.796-.227-1.627.226-1.86 1.02-.23.796.226 1.628 1.02 1.86 1.516.442 3.054.923 4.572 1.43.158.05.317.076.475.076.628 0 1.213-.398 1.422-1.026.263-.786-.162-1.635-.948-1.897-1.554-.52-3.13-1.01-4.68-1.463M253.046 283.65c-1.837-.064-3.736-.077-5.65-.04-.83.016-1.487.7-1.47 1.53.015.826.687 1.442 1.528 1.47 1.858-.038 3.703-.024 5.486.038h.054c.804 0 1.47-.636 1.498-1.446.03-.828-.618-1.522-1.446-1.552"/>
    <path d="M214.448 291.645c.13 0 .263-.017.395-.053 8.457-2.3 16.755-3.827 24.664-4.54.825-.074 1.433-.804 1.36-1.63-.075-.824-.808-1.425-1.63-1.36-8.083.73-16.555 2.29-25.18 4.635-.8.217-1.272 1.04-1.055 1.84.18.67.786 1.108 1.446 1.108M335.87 336.746h-56.32V246.81l56.32-76.106v166.042zm1.5-204.048c-.83 0-1.5.672-1.5 1.5v31.462l-59.025 79.762c-.19.26-.294.57-.294.892v91.932c0 .828.672 1.5 1.5 1.5h59.32c.828 0 1.5-.672 1.5-1.5V134.198c0-.828-.672-1.5-1.5-1.5z"/>
    <path d="M284.21 333.748h47c.83 0 1.5-.672 1.5-1.5s-.67-1.5-1.5-1.5h-47c-.83 0-1.5.672-1.5 1.5s.67 1.5 1.5 1.5M284.21 325.414h47c.83 0 1.5-.672 1.5-1.5s-.67-1.5-1.5-1.5h-47c-.83 0-1.5.672-1.5 1.5s.67 1.5 1.5 1.5M284.21 317.08h47c.83 0 1.5-.672 1.5-1.5s-.67-1.5-1.5-1.5h-47c-.83 0-1.5.672-1.5 1.5s.67 1.5 1.5 1.5M284.21 308.746h47c.83 0 1.5-.672 1.5-1.5s-.67-1.5-1.5-1.5h-47c-.83 0-1.5.672-1.5 1.5s.67 1.5 1.5 1.5M284.21 300.412h47c.83 0 1.5-.672 1.5-1.5s-.67-1.5-1.5-1.5h-47c-.83 0-1.5.672-1.5 1.5s.67 1.5 1.5 1.5M284.21 292.078h47c.83 0 1.5-.672 1.5-1.5s-.67-1.5-1.5-1.5h-47c-.83 0-1.5.672-1.5 1.5s.67 1.5 1.5 1.5M284.21 283.744h47c.83 0 1.5-.672 1.5-1.5s-.67-1.5-1.5-1.5h-47c-.83 0-1.5.672-1.5 1.5s.67 1.5 1.5 1.5M284.21 275.41h47c.83 0 1.5-.672 1.5-1.5s-.67-1.5-1.5-1.5h-47c-.83 0-1.5.672-1.5 1.5s.67 1.5 1.5 1.5M284.21 267.076h47c.83 0 1.5-.672 1.5-1.5s-.67-1.5-1.5-1.5h-47c-.83 0-1.5.672-1.5 1.5s.67 1.5 1.5 1.5M284.21 258.742h47c.83 0 1.5-.672 1.5-1.5s-.67-1.5-1.5-1.5h-47c-.83 0-1.5.672-1.5 1.5s.67 1.5 1.5 1.5M284.21 250.408h47c.83 0 1.5-.672 1.5-1.5s-.67-1.5-1.5-1.5h-47c-.83 0-1.5.672-1.5 1.5s.67 1.5 1.5 1.5M290.21 242.074h41c.83 0 1.5-.672 1.5-1.5s-.67-1.5-1.5-1.5h-41c-.83 0-1.5.672-1.5 1.5s.67 1.5 1.5 1.5M296.21 233.74h35c.83 0 1.5-.672 1.5-1.5s-.67-1.5-1.5-1.5h-35c-.83 0-1.5.672-1.5 1.5s.67 1.5 1.5 1.5M302.21 225.406h29c.83 0 1.5-.672 1.5-1.5s-.67-1.5-1.5-1.5h-29c-.83 0-1.5.672-1.5 1.5s.67 1.5 1.5 1.5M309.21 217.072h22c.83 0 1.5-.672 1.5-1.5s-.67-1.5-1.5-1.5h-22c-.83 0-1.5.672-1.5 1.5s.67 1.5 1.5 1.5M314.21 208.738h17c.83 0 1.5-.672 1.5-1.5s-.67-1.5-1.5-1.5h-17c-.83 0-1.5.672-1.5 1.5s.67 1.5 1.5 1.5M337.37 120.015c-.83 0-1.5.67-1.5 1.5v3.942c0 .83.67 1.5 1.5 1.5.828 0 1.5-.67 1.5-1.5v-3.942c0-.83-.672-1.5-1.5-1.5M432.395 336.592h-3.283v-197.5c0-.83-.672-1.5-1.5-1.5H396.98c-.83 0-1.5.67-1.5 1.5v197.5h-3.283v-206.67h40.198v206.67zm-6.283 0h-12.316V146.95c0-.828-.672-1.5-1.5-1.5s-1.5.672-1.5 1.5v189.642H398.48v-196h27.632v196zm7.783-209.67h-43.198c-.828 0-1.5.67-1.5 1.5v209.67c0 .828.672 1.5 1.5 1.5h43.198c.828 0 1.5-.672 1.5-1.5v-209.67c0-.83-.672-1.5-1.5-1.5zM439.72 122.633h-54.848c-.828 0-1.5.672-1.5 1.5 0 .83.672 1.5 1.5 1.5h54.848c.828 0 1.5-.67 1.5-1.5 0-.828-.672-1.5-1.5-1.5M410.09 118.31h4.41v-4.41h-4.41v4.41zm-13.77 1.5c0 .828.673 1.5 1.5 1.5h28.95c.83 0 1.5-.672 1.5-1.5 0-.83-.67-1.5-1.5-1.5h-9.27v-5.91c0-.83-.67-1.5-1.5-1.5h-2.204V75.843c0-.83-.672-1.5-1.5-1.5s-1.5.67-1.5 1.5V110.9h-2.205c-.827 0-1.5.67-1.5 1.5v5.91h-9.27c-.827 0-1.5.67-1.5 1.5z"/>
    <path d="M396.296 135.51h7c.828 0 1.5-.672 1.5-1.5 0-.83-.672-1.5-1.5-1.5h-7c-.828 0-1.5.67-1.5 1.5 0 .828.672 1.5 1.5 1.5M408.796 135.51h7c.828 0 1.5-.672 1.5-1.5 0-.83-.672-1.5-1.5-1.5h-7c-.828 0-1.5.67-1.5 1.5 0 .828.672 1.5 1.5 1.5M421.296 135.51h7c.828 0 1.5-.672 1.5-1.5 0-.83-.672-1.5-1.5-1.5h-7c-.828 0-1.5.67-1.5 1.5 0 .828.672 1.5 1.5 1.5M384.872 145.45c-.828 0-1.5.672-1.5 1.5v191.142c0 .828.672 1.5 1.5 1.5s1.5-.672 1.5-1.5V146.95c0-.828-.672-1.5-1.5-1.5M439.72 145.45c-.828 0-1.5.672-1.5 1.5v191.142c0 .828.672 1.5 1.5 1.5s1.5-.672 1.5-1.5V146.95c0-.828-.672-1.5-1.5-1.5M524.085 336.592H511v-93.17h3.49l9.595 93.17zM511 209.545l3.18 30.877H511v-30.877zm-3-66.367l-5.625 5.306v-8.688L508 134.49v8.688zm0 12.81l-5.625 5.307v-8.688l5.625-5.305v8.686zm0 12.814l-5.625 5.304v-8.688L508 160.11v8.692zm0 10.288h-5.625v-.86l5.625-5.305v6.165zm0 15.337l-5.625 5.306v-8.69L508 185.74v8.69zm0 12.812l-5.625 5.304v-8.688L508 198.55v8.69zm0 12.812l-5.625 5.306v-8.69L508 211.36v8.69zm0 12.813l-5.625 5.306v-8.69l5.625-5.305v8.69zm0 7.557h-3.64l3.64-3.434v3.434zm0 5.255l-5.625 5.305v-7.56H508v2.255zm0 12.812l-5.625 5.306v-8.69L508 249.8v8.69zm0 12.813l-5.625 5.305v-8.69l5.625-5.306v8.69zm0 12.81l-5.625 5.308v-8.69l5.625-5.304v8.688zm0 12.814l-5.625 5.306v-8.69l5.625-5.306v8.69zm0 12.812l-5.625 5.306v-8.69L508 301.05v8.69zm0 12.812l-5.625 5.306v-8.688l5.625-5.307v8.69zm0 12.812l-1.302 1.228h-4.323v-4.61l5.625-5.306v8.688zm-5.625-153.274h5.12l-5.12 4.83v-4.83zm0-49.343h3.1l-3.1 2.924v-2.923zm-3 83.23v24.445h-3.18l3.18-30.877v6.433zm0 120.615H486.29l9.596-93.17h3.49v93.17zm20.442-93.17c.83 0 1.5-.672 1.5-1.5s-.67-1.5-1.5-1.5h-2.62l-6.01-58.332h2.98c.83 0 1.5-.672 1.5-1.5s-.67-1.5-1.5-1.5h-2.978l6.66-47.672c.114-.82-.458-1.58-1.28-1.693-.827-.116-1.578.457-1.692 1.278L511 158.763v-27.516c0-.83-.672-1.5-1.5-1.5h-8.625c-.828 0-1.5.67-1.5 1.5v27.515l-3.878-27.76c-.114-.82-.87-1.397-1.693-1.277-.82.114-1.393.873-1.278 1.693l6.66 47.672h-2.98c-.827 0-1.5.672-1.5 1.5s.673 1.5 1.5 1.5h2.98l-6.007 58.332h-2.622c-.83 0-1.5.672-1.5 1.5s.67 1.5 1.5 1.5h2.312l-9.734 94.516c-.043.422.093.843.38 1.16.283.314.687.494 1.112.494h41.12c.424 0 .828-.18 1.112-.495.286-.316.422-.737.38-1.16l-9.735-94.515h2.312zM494.357 104.235h27.415l-.454 3.542h-32.26l-.455-3.542h5.754zm1.5-3h18.66V90.59h-18.66v10.645zm24.8 11.708h-30.938l-.28-2.166h31.495l-.28 2.166zm-.663 5.167H490.38l-.277-2.167h30.17l-.28 2.167zm-.838 6.54H491.22l-.455-3.54h28.845l-.454 3.54zm-30.746 1.69c.097.75.734 1.31 1.488 1.31h30.58c.753 0 1.39-.56 1.487-1.31l3-23.414c.055-.427-.077-.858-.362-1.182-.286-.323-.696-.51-1.126-.51h-5.96V89.09c0-.83-.67-1.5-1.5-1.5h-21.66c-.828 0-1.5.67-1.5 1.5v12.145h-5.96c-.43 0-.84.186-1.125.51-.285.323-.417.754-.362 1.18l3 23.416zM495.857 82.5h18.66v-2.08h-18.66v2.08zm-1.5 3h21.66c.83 0 1.5-.672 1.5-1.5v-5.08c0-.827-.67-1.5-1.5-1.5h-9.33V40.13c0-.83-.67-1.5-1.5-1.5-.828 0-1.5.67-1.5 1.5v37.29h-9.33c-.828 0-1.5.673-1.5 1.5V84c0 .828.672 1.5 1.5 1.5zM610.1 336.704h-4.76c1.56-12.52 11.22-91.374 10.77-123.883l4.784-.194c.502 32.473-9.385 112.824-10.793 124.078zm-12.546 0c1.557-12.48 11.158-90.872 10.775-123.564l4.782-.196c.437 32.68-9.396 112.574-10.797 123.76h-4.76zm-7.785 0c1.55-12.443 11.097-90.376 10.776-123.246l4.784-.195c.37 32.876-9.404 112.293-10.8 123.44h-4.76zm-3.307-38.49c2.987-27.553 6.46-64.193 6.3-84.438l4.784-.195c.292 31.566-8.55 104.947-10.564 121.207l-.52-36.574zm-1.198-84.13l4.5-.186c.104 14.27-1.606 36.763-3.67 58.43l-.83-58.245zm-.12-8.288c-.01-.82-.68-1.48-1.5-1.48h-.018l-.114.002c-.86 0-7.345-.073-17.947-1.964 4.146-3.95 17.13-13.083 45.575-8.724 2.993 6.44 3.658 13.49 3.805 16.236l-.394.016h-.01l-7.764.318h-.005l-21.548.882-.076-5.286zm-17.078 130.908c-1.346-10.068-9.975-76.73-10.167-132.823 12.392 2.747 21.007 3.3 24.267 3.41l1.844 129.414h-15.943zm49.113-161.51c2.24 15.083 2.128 30 2.03 34.497l-1.262.053c-.153-3.068-.89-10.946-4.45-18.14-.217-.434-.63-.738-1.108-.815-19.192-3.07-31.82-.3-39.695 3.303 7.753-6.724 21.54-15.09 44.485-18.897zm6.205 34.775c-.293-.276-.682-.42-1.086-.405l-.087.004c.1-4.973.18-20.732-2.3-36.332-.13-.816-.892-1.374-1.71-1.247-39.766 6.153-53.613 25.335-56.275 29.673-1.653-.333-3.378-.702-5.19-1.123-.443-.103-.915.002-1.273.286-.36.285-.568.717-.568 1.175 0 61.106 10.27 135.665 10.374 136.41.104.742.738 1.294 1.487 1.294h44.667c.755 0 1.392-.56 1.488-1.31.118-.932 11.868-93.54 10.947-127.37-.01-.402-.182-.782-.475-1.055zM610.237 157.377c.12 0 .244-.015.367-.045 1.975-.496 4.016-.976 6.065-1.425.808-.177 1.32-.976 1.143-1.786-.177-.807-.97-1.324-1.787-1.142-2.078.455-4.148.94-6.153 1.444-.804.202-1.29 1.016-1.09 1.82.17.68.782 1.135 1.454 1.135M557.42 179.67c.295.406.753.622 1.22.622.303 0 .61-.092.876-.283 7.675-5.54 16.484-10.407 26.18-14.47.765-.32 1.125-1.2.805-1.965-.32-.763-1.197-1.123-1.963-.804-9.907 4.154-18.916 9.134-26.777 14.805-.672.486-.823 1.423-.34 2.095M649.33 311.242c.642-2.05 2.557-3.54 4.814-3.54 2.256 0 4.17 1.49 4.812 3.54h-9.625zm-13.08 0c.64-2.05 2.556-3.54 4.813-3.54 2.257 0 4.172 1.49 4.813 3.54h-9.626zm17.894-6.54c-2.697 0-5.08 1.338-6.54 3.38-1.46-2.042-3.845-3.38-6.54-3.38-4.435 0-8.042 3.607-8.042 8.04 0 .828.672 1.5 1.5 1.5h11.582v22.644c0 .828.67 1.5 1.5 1.5.828 0 1.5-.672 1.5-1.5v-22.644h11.58c.828 0 1.5-.672 1.5-1.5 0-4.433-3.607-8.04-8.04-8.04zM365.728 311.242c.64-2.05 2.555-3.54 4.812-3.54s4.172 1.49 4.813 3.54h-9.625zm-13.082 0c.64-2.05 2.556-3.54 4.813-3.54 2.257 0 4.172 1.49 4.812 3.54h-9.626zm17.894-6.54c-2.696 0-5.08 1.338-6.54 3.38-1.46-2.042-3.845-3.38-6.54-3.38-4.435 0-8.04 3.607-8.04 8.04 0 .828.67 1.5 1.5 1.5h11.58v22.644c0 .828.672 1.5 1.5 1.5s1.5-.672 1.5-1.5v-22.644h11.58c.828 0 1.5-.672 1.5-1.5 0-4.433-3.606-8.04-8.04-8.04zM468.188 298.242c.64-2.05 2.556-3.54 4.813-3.54 2.258 0 4.173 1.49 4.813 3.54h-9.625zm-13.08 0c.64-2.05 2.555-3.54 4.812-3.54 2.258 0 4.173 1.49 4.813 3.54h-9.626zm17.893-6.54c-2.695 0-5.08 1.338-6.54 3.38-1.46-2.042-3.844-3.38-6.54-3.38-4.434 0-8.04 3.607-8.04 8.04 0 .828.672 1.5 1.5 1.5h11.58v35.644c0 .828.673 1.5 1.5 1.5.83 0 1.5-.672 1.5-1.5v-35.644h11.58c.83 0 1.5-.672 1.5-1.5 0-4.433-3.605-8.04-8.04-8.04z"/>
  </g>
</svg>
