<?xml version="1.0" encoding="UTF-8"?>
<svg width="977px" height="575px" viewBox="0 0 977 575" version="1.1" xmlns="http://www.w3.org/2000/svg" xmlns:xlink="http://www.w3.org/1999/xlink">
    <!-- Generator: Sketch 41 (35326) - http://www.bohemiancoding.com/sketch -->
    <title>Artboard</title>
    <desc>Created with Sketch.</desc>
    <defs></defs>
    <g id="Page-1" stroke="none" stroke-width="1" fill="none" fill-rule="evenodd">
        <g id="Artboard" transform="translate(-191.000000, -262.000000)">
            <g id="S" transform="translate(191.000000, 262.000000)">
                <path d="M34.7163121,54.9223867 C34.7163121,61.8757784 44.3724209,67.5145484 56.2605085,67.5145484 L56.2605085,42.3302249 C44.3724209,42.3302249 34.7163121,47.9689949 34.7163121,54.9223867" id="Fill-70" fill="#FF8162"></path>
                <path d="M93.3729483,125.036798 C93.3729483,115.695659 83.7254572,108.120574 71.8287519,108.120574 L71.8287519,141.953021 C83.7254572,141.953021 93.3729483,134.374553 93.3729483,125.036798" id="Fill-72" fill="#FF8162"></path>
                <path d="M71.4579159,65.5824969 C63.8475377,65.5824969 63.8475377,67.9976735 56.2371595,67.9976735 C49.2381484,67.9976735 43.5531959,62.3589035 43.5531959,55.4055117 C43.5531959,48.45212 49.2381484,42.81335 56.2371595,42.81335 L56.2371595,0 C25.4278118,0 0.427719461,24.8065587 0.427719461,55.4055117 C0.427719461,85.9943911 25.4278118,110.811023 56.2371595,110.811023 C63.8475377,110.811023 63.8475377,108.395847 71.4579159,108.395847 C78.4620007,108.395847 84.1418796,114.034617 84.1418796,120.988009 C84.1418796,127.938882 78.4620007,133.58017 71.4579159,133.58017 L71.4579159,176.39352 C102.277411,176.39352 127.267356,151.576888 127.267356,120.988009 C127.267356,90.3890556 102.277411,65.5824969 71.4579159,65.5824969" id="Fill-74" fill="#FFFFFF"></path>
            </g>
            <g id="Y" transform="translate(318.000000, 262.000000)">
                <polyline id="Fill-78" fill="#FF8162" points="151.60316 0 101.045683 0 75.7568336 41.8361982 100.926873 83.5162537 101.045683 83.3198159 101.045683 83.7126914 151.60316 0"></polyline>
                <polyline id="Fill-80" fill="#FFFFFF" points="100.996143 83.5162537 50.5574764 0 0 0 50.5574764 83.63462 50.5574764 176.290265 101.114953 176.290265 101.114953 83.3198159 100.996143 83.5162537"></polyline>
            </g>
            <g id="D" transform="translate(496.000000, 262.000000)">
                <path d="M41.8173759,42.350625 L41.8173759,88.2667535 L98.6258865,88.2667535 C98.6258865,62.9026841 73.1870355,42.350625 41.8173759,42.350625" id="Fill-114" fill="#FF8162"></path>
                <path d="M50.7752898,125.921618 L50.7752898,50.368647 C71.7632523,50.368647 88.7831901,67.2774019 88.7831901,88.1451323 C88.7831901,109.007826 71.7632523,125.921618 50.7752898,125.921618 L50.7752898,125.921618 Z M50.7752898,0 L0.0980893295,0 L0.0980893295,176.290265 L50.7752898,176.290265 C99.754804,176.290265 139.460391,136.82643 139.460391,88.1451323 C139.460391,39.463835 99.754804,0 50.7752898,0 L50.7752898,0 Z" id="Fill-116" fill="#FFFFFF"></path>
            </g>
            <g id="P" transform="translate(191.000000, 491.000000)">
                <path d="M129,0 L129,246.903821 C197.185906,246.903821 252.462567,191.622055 252.462567,123.45191 C252.462567,55.2768274 197.185906,0 129,0" id="Fill-55" fill="#FF8162"></path>
                <polygon id="Fill-57" fill="#FFFFFF" points="0 345.769049 129.665326 345.769049 129.665326 0 0 0"></polygon>
            </g>
            <g id="W" transform="translate(443.000000, 491.000000)">
                <polygon id="Fill-93" fill="#FF8162" points="353 0 227.770053 0 290.385027 151"></polygon>
                <polyline id="Fill-95" fill="#FF8162" points="222.07754 142 148 345.832675 296.150142 345.832675 296.110634 345.722023 222.07754 142"></polyline>
                <polygon id="Fill-97" fill="#FF8162" points="90 0 149 134 208 0"></polygon>
                <polyline id="Fill-99" fill="#FFFFFF" points="296.31016 115.220137 246.925134 0 197.540107 0 148.15508 115.220137 98.7700535 0 0 0 148.15508 345.665349 222.23262 172.832675 296.265714 345.571526 296.31016 345.665349 444.465241 0 345.695187 0 296.31016 115.220137"></polyline>
            </g>
            <g id="A" transform="translate(869.000000, 490.000000)">
                <polyline id="Fill-75" fill="#FF8162" points="0 345.984806 170.116602 345.984806 84.4286417 148 0 345.984806"></polyline>
                <polyline id="Fill-77" fill="#FFFFFF" points="84 148.81795 169.68796 345.984806 298.089029 345.984806 147.726439 0 84 148.81795"></polyline>
            </g>
        </g>
    </g>
</svg>