<?xml version="1.0" encoding="UTF-8"?>
<svg width="669px" height="340px" viewBox="0 0 669 340" version="1.1" xmlns="http://www.w3.org/2000/svg" xmlns:xlink="http://www.w3.org/1999/xlink">
    <!-- Generator: Sketch 41 (35326) - http://www.bohemiancoding.com/sketch -->
    <title>illustration</title>
    <desc>Created with Sketch.</desc>
    <defs></defs>
    <g id="Page-1" stroke="none" stroke-width="1" fill="none" fill-rule="evenodd">
        <g id="illustration" fill="#FFFFFF">
            <path d="M667.393,339.746 L2,339.746 C1.171,339.746 0.5,339.074 0.5,338.246 C0.5,337.418 1.171,336.746 2,336.746 L667.393,336.746 C668.221,336.746 668.893,337.418 668.893,338.246 C668.893,339.074 668.221,339.746 667.393,339.746" id="Fill-24"></path>
            <path d="M206.811,36 C207.898,36 208.783,35.115 208.783,34.028 C208.783,32.94 207.898,32.056 206.811,32.056 C205.723,32.056 204.838,32.94 204.838,34.028 C204.838,35.115 205.723,36 206.811,36" id="Fill-25"></path>
            <path d="M363.999,9.247 C364.895,9.247 365.623,8.519 365.623,7.624 C365.623,6.729 364.895,6 363.999,6 C363.104,6 362.376,6.729 362.376,7.624 C362.376,8.519 363.104,9.247 363.999,9.247" id="Fill-26"></path>
            <path d="M36.887,145.447 C37.783,145.447 38.511,144.719 38.511,143.824 C38.511,142.929 37.783,142.201 36.887,142.201 C35.992,142.201 35.264,142.929 35.264,143.824 C35.264,144.719 35.992,145.447 36.887,145.447" id="Fill-27"></path>
            <path d="M259.99,172.462 C259.095,172.462 258.367,173.19 258.367,174.085 C258.367,174.979 259.095,175.708 259.99,175.708 C260.885,175.708 261.614,174.979 261.614,174.085 C261.614,173.19 260.885,172.462 259.99,172.462" id="Fill-28"></path>
            <path d="M565.174,119.61 C565.174,118.622 564.37,117.819 563.382,117.819 C562.395,117.819 561.592,118.622 561.592,119.61 C561.592,120.598 562.395,121.401 563.382,121.401 C564.37,121.401 565.174,120.598 565.174,119.61" id="Fill-29"></path>
            <path d="M456.719,43.684 C458.029,43.684 459.096,42.618 459.096,41.307 C459.096,39.997 458.029,38.93 456.719,38.93 C455.408,38.93 454.342,39.997 454.342,41.307 C454.342,42.618 455.408,43.684 456.719,43.684" id="Fill-30"></path>
            <path d="M75.827,11.156 C76.381,11.615 77.183,11.615 77.737,11.157 L86.47,3.945 L95.199,11.156 C95.753,11.615 96.555,11.615 97.109,11.157 L105.846,3.945 L114.582,11.157 C114.861,11.388 115.2,11.5 115.536,11.5 C115.968,11.5 116.397,11.314 116.693,10.955 C117.221,10.316 117.13,9.371 116.492,8.843 L106.801,0.843 C106.246,0.385 105.445,0.385 104.891,0.843 L96.155,8.055 L87.425,0.844 C86.871,0.386 86.069,0.385 85.515,0.843 L76.782,8.055 L68.054,0.844 C67.414,0.315 66.469,0.406 65.942,1.044 C65.414,1.684 65.504,2.629 66.143,3.156 L75.827,11.156" id="Fill-31"></path>
            <path d="M288.092,81 C288.646,81.459 289.447,81.458 290.002,81 L298.738,73.789 L307.475,81 C307.754,81.231 308.093,81.344 308.429,81.344 C308.861,81.344 309.29,81.158 309.586,80.799 C310.114,80.16 310.023,79.214 309.385,78.687 L299.693,70.687 C299.139,70.229 298.338,70.229 297.783,70.687 L289.047,77.898 L280.317,70.688 C279.764,70.229 278.962,70.229 278.407,70.687 L269.675,77.898 L260.945,70.688 C260.307,70.16 259.361,70.249 258.834,70.889 C258.306,71.527 258.396,72.473 259.035,73 L268.72,81 C269.273,81.458 270.075,81.458 270.63,81 L279.362,73.789 L288.092,81" id="Fill-32"></path>
            <path d="M559.421,53.307 C559.421,52.479 558.749,51.807 557.921,51.807 L546.883,51.807 C546.055,51.807 545.383,52.479 545.383,53.307 C545.383,54.136 546.055,54.807 546.883,54.807 L557.921,54.807 C558.749,54.807 559.421,54.136 559.421,53.307" id="Fill-33"></path>
            <path d="M559.421,59.839 C559.421,59.011 558.749,58.339 557.921,58.339 L552.402,58.339 C551.574,58.339 550.902,59.011 550.902,59.839 C550.902,60.668 551.574,61.339 552.402,61.339 L557.921,61.339 C558.749,61.339 559.421,60.668 559.421,59.839" id="Fill-34"></path>
            <path d="M566.449,42.807 L568.52,42.807 C569.348,42.807 570.02,42.136 570.02,41.307 C570.02,40.479 569.348,39.807 568.52,39.807 L566.449,39.807 C565.621,39.807 564.949,40.479 564.949,41.307 C564.949,42.136 565.621,42.807 566.449,42.807" id="Fill-35"></path>
            <path d="M569.063,48.391 C569.688,48.391 570.309,48.505 570.911,48.731 C571.361,48.9 571.865,48.843 572.265,48.577 C572.666,48.313 572.915,47.872 572.937,47.392 C573.122,43.128 576.608,39.788 580.872,39.788 C585.021,39.788 588.425,42.903 588.791,47.033 C588.858,47.791 589.482,48.379 590.243,48.4 C593.119,48.48 595.371,50.793 595.371,53.666 C595.371,56.575 593.005,58.942 590.096,58.942 L569.063,58.942 C566.154,58.942 563.788,56.575 563.788,53.666 C563.788,50.757 566.154,48.391 569.063,48.391 L569.063,48.391 Z M559.281,48.584 L562.546,48.584 C561.448,49.989 560.788,51.75 560.788,53.666 C560.788,58.229 564.5,61.942 569.063,61.942 L590.096,61.942 C594.659,61.942 598.371,58.229 598.371,53.666 C598.371,49.591 595.485,46.234 591.601,45.532 C590.577,40.469 586.164,36.788 580.872,36.788 C575.612,36.788 571.211,40.478 570.164,45.465 C569.8,45.416 569.432,45.391 569.063,45.391 C568.458,45.391 567.868,45.46 567.299,45.584 L559.281,45.584 C558.453,45.584 557.781,46.256 557.781,47.084 C557.781,47.913 558.453,48.584 559.281,48.584 L559.281,48.584 Z" id="Fill-36"></path>
            <path d="M147.527,153.41 L147.534,153.41 L147.692,153.418 C148.323,153.442 148.903,153.06 149.136,152.471 C150.177,149.837 152.692,148.136 155.544,148.136 C159.339,148.136 162.427,151.188 162.422,155.012 L162.414,155.165 C162.391,155.715 162.671,156.232 163.143,156.515 C163.615,156.797 164.203,156.796 164.677,156.517 C165.747,155.883 166.965,155.548 168.199,155.548 C171.995,155.548 175.082,158.601 175.082,162.353 C175.082,166.104 171.995,169.157 168.199,169.157 L147.477,169.157 C143.085,169.157 139.512,165.624 139.512,161.281 C139.512,156.941 143.081,153.41 147.527,153.41 L147.527,153.41 Z M132.637,154.199 L139.177,154.199 C137.522,156.104 136.512,158.575 136.512,161.281 C136.512,163.067 136.956,164.75 137.729,166.238 L132.637,166.238 C131.808,166.238 131.137,166.91 131.137,167.738 C131.137,168.566 131.808,169.238 132.637,169.238 L138.155,169.238 C138.665,169.238 139.113,168.982 139.385,168.595 C141.391,170.777 144.271,172.157 147.477,172.157 L168.199,172.157 C173.648,172.157 178.082,167.759 178.082,162.353 C178.082,156.946 173.648,152.548 168.199,152.548 C167.191,152.548 166.19,152.703 165.233,153.005 C164.325,148.522 160.326,145.136 155.544,145.136 C151.802,145.136 148.462,147.182 146.774,150.429 C145.585,150.504 144.452,150.776 143.394,151.199 L132.637,151.199 C131.808,151.199 131.137,151.871 131.137,152.699 C131.137,153.527 131.808,154.199 132.637,154.199 L132.637,154.199 Z" id="Fill-37"></path>
            <path d="M122.469,160.146 L133.507,160.146 C134.335,160.146 135.007,159.475 135.007,158.646 C135.007,157.818 134.335,157.146 133.507,157.146 L122.469,157.146 C121.64,157.146 120.969,157.818 120.969,158.646 C120.969,159.475 121.64,160.146 122.469,160.146" id="Fill-38"></path>
            <path d="M125.875,166.238 C125.046,166.238 124.375,166.91 124.375,167.738 C124.375,168.566 125.046,169.238 125.875,169.238 L127.034,169.238 C127.863,169.238 128.534,168.566 128.534,167.738 C128.534,166.91 127.863,166.238 127.034,166.238 L125.875,166.238" id="Fill-39"></path>
            <path d="M143.095,148.136 L144.254,148.136 C145.083,148.136 145.754,147.464 145.754,146.636 C145.754,145.808 145.083,145.136 144.254,145.136 L143.095,145.136 C142.266,145.136 141.595,145.808 141.595,146.636 C141.595,147.464 142.266,148.136 143.095,148.136" id="Fill-40"></path>
            <path d="M475.306,208.738 C475.306,207.91 474.634,207.238 473.806,207.238 L472.383,207.238 L472.383,205.815 C472.383,204.987 471.711,204.315 470.883,204.315 C470.055,204.315 469.383,204.987 469.383,205.815 L469.383,207.238 L467.96,207.238 C467.132,207.238 466.46,207.91 466.46,208.738 C466.46,209.566 467.132,210.238 467.96,210.238 L469.383,210.238 L469.383,211.661 C469.383,212.489 470.055,213.161 470.883,213.161 C471.711,213.161 472.383,212.489 472.383,211.661 L472.383,210.238 L473.806,210.238 C474.634,210.238 475.306,209.566 475.306,208.738" id="Fill-41"></path>
            <path d="M361.077,281.585 L362.5,281.585 L362.5,283.008 C362.5,283.836 363.172,284.508 364,284.508 C364.828,284.508 365.5,283.836 365.5,283.008 L365.5,281.585 L366.923,281.585 C367.751,281.585 368.423,280.913 368.423,280.085 C368.423,279.257 367.751,278.585 366.923,278.585 L365.5,278.585 L365.5,277.162 C365.5,276.334 364.828,275.662 364,275.662 C363.172,275.662 362.5,276.334 362.5,277.162 L362.5,278.585 L361.077,278.585 C360.249,278.585 359.577,279.257 359.577,280.085 C359.577,280.913 360.249,281.585 361.077,281.585" id="Fill-42"></path>
            <path d="M31.042,240.092 L32.465,240.092 L32.465,241.515 C32.465,242.343 33.136,243.015 33.965,243.015 C34.794,243.015 35.465,242.343 35.465,241.515 L35.465,240.092 L36.888,240.092 C37.716,240.092 38.388,239.42 38.388,238.592 C38.388,237.764 37.716,237.092 36.888,237.092 L35.465,237.092 L35.465,235.669 C35.465,234.841 34.794,234.169 33.965,234.169 C33.136,234.169 32.465,234.841 32.465,235.669 L32.465,237.092 L31.042,237.092 C30.213,237.092 29.542,237.764 29.542,238.592 C29.542,239.42 30.213,240.092 31.042,240.092" id="Fill-43"></path>
            <path d="M645.803,255.142 L646.103,255.142 L646.103,255.442 C646.103,256.271 646.774,256.942 647.603,256.942 C648.431,256.942 649.103,256.271 649.103,255.442 L649.103,255.142 L649.404,255.142 C650.232,255.142 650.904,254.47 650.904,253.642 C650.904,252.813 650.232,252.142 649.404,252.142 L649.103,252.142 L649.103,251.84 C649.103,251.012 648.431,250.34 647.603,250.34 C646.774,250.34 646.103,251.012 646.103,251.84 L646.103,252.142 L645.803,252.142 C644.975,252.142 644.303,252.813 644.303,253.642 C644.303,254.47 644.975,255.142 645.803,255.142" id="Fill-44"></path>
            <path d="M188.925,246.289 L189.225,246.289 L189.225,246.59 C189.225,247.418 189.896,248.09 190.725,248.09 C191.553,248.09 192.225,247.418 192.225,246.59 L192.225,246.289 L192.526,246.289 C193.355,246.289 194.026,245.617 194.026,244.789 C194.026,243.961 193.355,243.289 192.526,243.289 L192.225,243.289 L192.225,242.987 C192.225,242.159 191.553,241.487 190.725,241.487 C189.896,241.487 189.225,242.159 189.225,242.987 L189.225,243.289 L188.925,243.289 C188.096,243.289 187.425,243.961 187.425,244.789 C187.425,245.617 188.096,246.289 188.925,246.289" id="Fill-45"></path>
            <path d="M115.536,103.134 C114.708,103.134 114.036,103.806 114.036,104.634 L114.036,104.936 L113.735,104.936 C112.907,104.936 112.235,105.607 112.235,106.436 C112.235,107.265 112.907,107.936 113.735,107.936 L114.036,107.936 L114.036,108.237 C114.036,109.065 114.708,109.737 115.536,109.737 C116.365,109.737 117.036,109.065 117.036,108.237 L117.036,107.936 L117.338,107.936 C118.167,107.936 118.838,107.265 118.838,106.436 C118.838,105.607 118.167,104.936 117.338,104.936 L117.036,104.936 L117.036,104.634 C117.036,103.806 116.365,103.134 115.536,103.134" id="Fill-46"></path>
            <path d="M629.801,60.743 L629.5,60.743 L629.5,60.442 C629.5,59.613 628.828,58.942 628,58.942 C627.172,58.942 626.5,59.613 626.5,60.442 L626.5,60.743 L626.199,60.743 C625.371,60.743 624.699,61.414 624.699,62.243 C624.699,63.071 625.371,63.743 626.199,63.743 L626.5,63.743 L626.5,64.043 C626.5,64.872 627.172,65.543 628,65.543 C628.828,65.543 629.5,64.872 629.5,64.043 L629.5,63.743 L629.801,63.743 C630.629,63.743 631.301,63.071 631.301,62.243 C631.301,61.414 630.629,60.743 629.801,60.743" id="Fill-47"></path>
            <path d="M33.965,319.659 C33.136,319.659 32.465,320.331 32.465,321.159 L32.465,323.242 C32.465,324.07 33.136,324.742 33.965,324.742 C34.794,324.742 35.465,324.07 35.465,323.242 L35.465,321.159 C35.465,320.331 34.794,319.659 33.965,319.659" id="Fill-48"></path>
            <path d="M51.523,318.573 C50.695,318.573 50.023,319.245 50.023,320.073 L50.023,327.681 C50.023,328.509 50.695,329.181 51.523,329.181 C52.352,329.181 53.023,328.509 53.023,327.681 L53.023,320.073 C53.023,319.245 52.352,318.573 51.523,318.573" id="Fill-49"></path>
            <path d="M60.303,324.159 C59.474,324.159 58.803,324.831 58.803,325.659 L58.803,327.607 C58.803,328.436 59.474,329.107 60.303,329.107 C61.131,329.107 61.803,328.436 61.803,327.607 L61.803,325.659 C61.803,324.831 61.131,324.159 60.303,324.159" id="Fill-50"></path>
            <path d="M86.641,327.671 C85.812,327.671 85.141,328.343 85.141,329.171 L85.141,329.516 C85.141,330.344 85.812,331.016 86.641,331.016 C87.469,331.016 88.141,330.344 88.141,329.516 L88.141,329.171 C88.141,328.343 87.469,327.671 86.641,327.671" id="Fill-51"></path>
            <path d="M174.434,329.153 C173.605,329.153 172.934,329.825 172.934,330.653 L172.934,330.998 C172.934,331.826 173.605,332.498 174.434,332.498 C175.262,332.498 175.934,331.826 175.934,330.998 L175.934,330.653 C175.934,329.825 175.262,329.153 174.434,329.153" id="Fill-52"></path>
            <path d="M238.596,330.154 L237.671,330.154 L247.872,319.688 L248.363,320.136 L238.596,330.154 L238.596,330.154 Z M243.168,333.154 L243.168,336.746 L237.389,336.746 L237.389,335.546 C237.389,334.718 236.717,334.046 235.889,334.046 C235.06,334.046 234.389,334.718 234.389,335.546 L234.389,336.746 L228.609,336.746 L228.609,333.154 L234.109,333.154 L234.114,333.155 L234.119,333.154 L243.168,333.154 L243.168,333.154 Z M246.168,336.746 L248.414,336.746 L248.414,333.154 L246.168,333.154 L246.168,336.746 Z M242.606,314.879 L245.655,317.663 L233.482,330.154 L227.72,330.154 L242.606,314.879 L242.606,314.879 Z M225.609,336.746 L219.83,336.746 L219.83,335.671 C219.83,334.843 219.159,334.171 218.33,334.171 C217.501,334.171 216.83,334.843 216.83,335.671 L216.83,336.746 L211.051,336.746 L211.051,334.378 C211.051,333.55 210.379,332.878 209.551,332.878 C208.722,332.878 208.051,333.55 208.051,334.378 L208.051,336.746 L202.271,336.746 L202.271,333.075 C202.271,332.247 201.6,331.575 200.771,331.575 C199.943,331.575 199.271,332.247 199.271,333.075 L199.271,336.746 L193.492,336.746 L193.492,331.654 C193.492,330.826 192.821,330.154 191.992,330.154 C191.164,330.154 190.492,330.826 190.492,331.654 L190.492,336.746 L184.713,336.746 L184.713,331.242 C184.713,330.414 184.042,329.742 183.213,329.742 C182.384,329.742 181.713,330.414 181.713,331.242 L181.713,336.746 L175.934,336.746 L175.934,335.671 C175.934,334.843 175.262,334.171 174.434,334.171 C173.605,334.171 172.934,334.843 172.934,335.671 L172.934,336.746 L167.154,336.746 L167.154,329.763 C167.154,328.935 166.483,328.263 165.654,328.263 C164.826,328.263 164.154,328.935 164.154,329.763 L164.154,336.746 L158.375,336.746 L158.375,331.825 C158.375,330.997 157.704,330.325 156.875,330.325 C156.046,330.325 155.375,330.997 155.375,331.825 L155.375,336.746 L149.596,336.746 L149.596,335.671 C149.596,334.843 148.924,334.171 148.096,334.171 C147.267,334.171 146.596,334.843 146.596,335.671 L146.596,336.746 L140.816,336.746 L140.816,334.921 C140.816,334.093 140.145,333.421 139.316,333.421 C138.488,333.421 137.816,334.093 137.816,334.921 L137.816,336.746 L132.037,336.746 L132.037,330.741 C132.037,329.913 131.366,329.241 130.537,329.241 C129.708,329.241 129.037,329.913 129.037,330.741 L129.037,336.746 L123.258,336.746 L123.258,331.516 C123.258,330.688 122.586,330.016 121.758,330.016 C120.929,330.016 120.258,330.688 120.258,331.516 L120.258,336.746 L114.479,336.746 L114.479,335.671 C114.479,334.843 113.807,334.171 112.979,334.171 C112.15,334.171 111.479,334.843 111.479,335.671 L111.479,336.746 L105.699,336.746 L105.699,330.763 C105.699,329.935 105.028,329.263 104.199,329.263 C103.371,329.263 102.699,329.935 102.699,330.763 L102.699,336.746 L96.92,336.746 L96.92,332.575 C96.92,331.747 96.249,331.075 95.42,331.075 C94.591,331.075 93.92,331.747 93.92,332.575 L93.92,336.746 L88.141,336.746 L88.141,335.671 C88.141,334.843 87.469,334.171 86.641,334.171 C85.812,334.171 85.141,334.843 85.141,335.671 L85.141,336.746 L79.361,336.746 L79.361,329.763 C79.361,328.935 78.69,328.263 77.861,328.263 C77.033,328.263 76.361,328.935 76.361,329.763 L76.361,336.746 L70.582,336.746 L70.582,331.825 C70.582,330.997 69.911,330.325 69.082,330.325 C68.253,330.325 67.582,330.997 67.582,331.825 L67.582,336.746 L61.803,336.746 L61.803,333.326 C61.803,332.498 61.131,331.826 60.303,331.826 C59.474,331.826 58.803,332.498 58.803,333.326 L58.803,336.746 L53.023,336.746 L53.023,334.492 C53.023,333.664 52.352,332.992 51.523,332.992 C50.695,332.992 50.023,333.664 50.023,334.492 L50.023,336.746 L44.244,336.746 L44.244,324.826 C44.244,323.998 43.573,323.326 42.744,323.326 C41.915,323.326 41.244,323.998 41.244,324.826 L41.244,336.746 L35.465,336.746 L35.465,332.909 C35.465,332.081 34.794,331.409 33.965,331.409 C33.136,331.409 32.465,332.081 32.465,332.909 L32.465,336.746 L27.81,336.746 L27.81,317.342 L36.553,317.342 C36.864,317.342 37.168,317.245 37.421,317.064 L42.048,313.778 L50.392,313.778 L52.497,314.652 L52.503,314.655 L68.887,321.459 C69.069,321.534 69.265,321.573 69.462,321.573 L80.885,321.573 L93.419,327.284 C93.614,327.373 93.827,327.419 94.041,327.419 L197.227,327.419 L214.127,333.077 L214.181,333.086 L214.252,333.112 C214.368,333.141 214.486,333.154 214.604,333.154 L225.609,333.154 L225.609,336.746 L225.609,336.746 Z M34.931,284.081 C39.435,283.514 51.314,282.502 63.417,285.472 L64.32,290.563 L46.065,309.614 L34.931,284.081 L34.931,284.081 Z M67.845,310.443 L68.732,315.444 L66.858,317.367 L62.756,315.664 L67.845,310.443 L67.845,310.443 Z M52.692,311.484 L51.267,310.893 C51.084,310.817 50.889,310.778 50.691,310.778 L49.105,310.778 L64.969,294.224 L65.669,298.169 L52.692,311.484 L52.692,311.484 Z M66.314,301.806 L67.2,306.807 L59.774,314.426 L55.674,312.723 L66.314,301.806 L66.314,301.806 Z M89.437,276.347 L91.042,283.622 C84.677,294.574 75.823,309.304 71.856,315.881 L66.211,284.042 L66.205,284.007 L63.941,271.241 C68.57,271.635 80.678,272.946 89.437,276.347 L89.437,276.347 Z M98.93,319.383 L99.993,324.202 L99.782,324.419 L94.367,324.419 L94.128,324.311 L98.93,319.383 L98.93,319.383 Z M97.094,311.058 L98.157,315.877 L91.228,322.988 L87.238,321.171 L97.094,311.058 L97.094,311.058 Z M95.258,302.733 L96.321,307.553 L84.337,319.849 L81.833,318.708 C81.638,318.619 81.425,318.573 81.211,318.573 L79.82,318.573 L95.258,302.733 L95.258,302.733 Z M86.571,297.141 C88.42,294.024 90.268,290.895 91.995,287.943 L92.648,290.904 L86.571,297.141 L86.571,297.141 Z M93.421,294.409 L94.484,299.229 L75.631,318.573 L73.735,318.573 C75.088,316.332 77.328,312.615 79.96,308.223 L93.421,294.409 L93.421,294.409 Z M113.022,321.042 L109.73,324.419 L107.717,324.419 C109.268,323.467 111.058,322.325 113.022,321.042 L113.022,321.042 Z M87.004,251.39 C96.219,253.491 131.675,263.571 143.695,296.279 C115.604,316.165 106.089,322.035 102.968,323.762 L92.202,274.953 L92.192,274.909 L87.004,251.39 L87.004,251.39 Z M119.68,324.419 L113.92,324.419 L125.179,312.866 C131.281,308.681 137.669,304.207 143.146,300.341 L119.68,324.419 L119.68,324.419 Z M147.201,300.479 C148.209,301.413 149.221,302.35 150.229,303.282 L129.629,324.419 L123.869,324.419 L147.201,300.479 L147.201,300.479 Z M168.176,319.791 C169.287,320.809 170.306,321.741 171.221,322.577 L169.426,324.419 L163.666,324.419 L168.176,319.791 L168.176,319.791 Z M162.922,314.974 C163.978,315.942 164.996,316.876 165.963,317.764 L159.477,324.419 L153.717,324.419 L162.922,314.974 L162.922,314.974 Z M139.578,324.419 L133.818,324.419 L152.434,305.318 C153.454,306.26 154.467,307.194 155.467,308.116 L139.578,324.419 L139.578,324.419 Z M157.674,310.149 C158.708,311.101 159.723,312.034 160.712,312.943 L149.527,324.419 L143.767,324.419 L157.674,310.149 L157.674,310.149 Z M183.635,285.566 C189.032,285.566 193.392,286.156 195.744,286.56 L176.669,323.492 C172.456,319.646 159.733,308.015 147.768,296.913 C159.54,287.569 173.681,285.566 183.635,285.566 L183.635,285.566 Z M179.781,324.004 L186.147,311.678 L188.445,315.114 L179.781,324.004 L179.781,324.004 Z M190.149,317.664 L192.492,321.169 L189.324,324.419 L183.565,324.419 L190.149,317.664 L190.149,317.664 Z M194.664,324.419 L193.514,324.419 L194.196,323.719 L194.664,324.419 L194.664,324.419 Z M203.409,308.052 L197.173,322.774 L187.72,308.632 L190.129,303.969 C194.196,304.699 199.353,305.955 203.409,308.052 L203.409,308.052 Z M205.514,312.105 L207.139,316.35 L200.089,323.583 L204.516,313.131 L205.514,312.105 L205.514,312.105 Z M206.394,327.324 L202.05,325.87 L208.32,319.436 L209.945,323.68 L206.394,327.324 L206.394,327.324 Z M211.126,326.766 L212.067,329.224 L209.552,328.382 L211.126,326.766 L211.126,326.766 Z M240.39,312.854 L223.531,330.154 L218.522,330.154 C222.83,326.293 231.239,318.766 239.161,311.732 L240.39,312.854 L240.39,312.854 Z M239.809,301.547 C241.867,301.547 243.876,301.646 245.816,301.844 C235.534,310.883 220.205,324.615 215.225,329.081 L207.239,308.221 C211.452,306.54 225.205,301.547 239.809,301.547 L239.809,301.547 Z M248.872,316.538 L248.861,316.522 L248.839,316.508 L243.596,311.72 L243.594,311.717 L243.59,311.714 L241.417,309.73 C244.639,306.876 247.701,304.174 250.276,301.923 C250.713,301.542 250.891,300.942 250.732,300.384 C250.573,299.826 250.107,299.409 249.535,299.314 C246.47,298.805 243.197,298.547 239.809,298.547 C223.519,298.547 208.717,304.337 205.387,305.731 C201.205,303.432 195.905,302.016 191.567,301.183 L199.328,286.158 C199.54,285.748 199.551,285.264 199.358,284.844 C199.166,284.425 198.791,284.117 198.342,284.011 C198.095,283.951 192.177,282.566 183.635,282.566 C173.273,282.566 158.568,284.675 146.18,294.37 C131.426,255.975 85.752,248.051 85.284,247.974 C84.792,247.896 84.293,248.062 83.952,248.423 C83.61,248.784 83.469,249.291 83.576,249.777 L88.669,272.867 C77.438,269.014 62.875,268.141 62.212,268.103 C61.752,268.091 61.31,268.263 61.005,268.604 C60.701,268.947 60.57,269.411 60.65,269.862 L62.846,282.248 C47.432,278.786 33.133,281.291 32.504,281.403 C32.052,281.485 31.663,281.769 31.447,282.174 C31.231,282.578 31.212,283.059 31.395,283.479 L43.299,310.778 L41.569,310.778 C41.258,310.778 40.955,310.875 40.701,311.056 L36.074,314.342 L26.31,314.342 C25.482,314.342 24.81,315.014 24.81,315.842 L24.81,338.246 C24.81,339.074 25.482,339.746 26.31,339.746 L249.914,339.746 C250.743,339.746 251.414,339.074 251.414,338.246 L251.414,331.654 C251.414,330.826 250.743,330.154 249.914,330.154 L242.786,330.154 L251.593,321.12 C251.876,320.829 252.03,320.436 252.018,320.029 C252.006,319.624 251.83,319.239 251.53,318.966 L248.872,316.538 L248.872,316.538 Z" id="Fill-53"></path>
            <path d="M130.985,243.555 C130.302,243.083 129.368,243.256 128.898,243.937 C128.428,244.618 128.599,245.553 129.28,246.023 C136.678,251.132 143.099,256.992 148.363,263.441 C148.66,263.805 149.091,263.993 149.526,263.993 C149.86,263.993 150.195,263.883 150.474,263.655 C151.116,263.131 151.211,262.187 150.688,261.545 C145.244,254.877 138.615,248.824 130.985,243.555" id="Fill-54"></path>
            <path d="M95.143,226.75 C94.347,226.523 93.516,226.976 93.284,227.771 C93.052,228.566 93.509,229.398 94.304,229.631 C95.819,230.072 97.357,230.553 98.875,231.059 C99.033,231.111 99.192,231.136 99.35,231.136 C99.978,231.136 100.563,230.738 100.772,230.11 C101.035,229.324 100.61,228.475 99.824,228.213 C98.27,227.694 96.695,227.202 95.143,226.75" id="Fill-55"></path>
            <path d="M253.046,283.65 C251.209,283.586 249.31,283.573 247.396,283.609 C246.567,283.626 245.909,284.311 245.925,285.139 C245.941,285.966 246.613,286.582 247.454,286.609 C249.312,286.572 251.157,286.586 252.94,286.648 L252.994,286.649 C253.798,286.649 254.464,286.012 254.492,285.202 C254.521,284.374 253.874,283.68 253.046,283.65" id="Fill-56"></path>
            <path d="M214.448,291.645 C214.579,291.645 214.711,291.628 214.843,291.592 C223.3,289.293 231.598,287.765 239.507,287.052 C240.332,286.978 240.94,286.248 240.866,285.423 C240.792,284.598 240.059,283.997 239.237,284.063 C231.154,284.793 222.682,286.352 214.056,288.697 C213.256,288.914 212.785,289.738 213.002,290.538 C213.183,291.206 213.788,291.645 214.448,291.645" id="Fill-57"></path>
            <path d="M335.869,336.746 L279.551,336.746 L279.551,246.81 L335.869,170.704 L335.869,336.746 L335.869,336.746 Z M337.369,132.698 C336.541,132.698 335.869,133.37 335.869,134.198 L335.869,165.66 L276.845,245.422 C276.654,245.681 276.551,245.993 276.551,246.314 L276.551,338.246 C276.551,339.074 277.222,339.746 278.051,339.746 L337.369,339.746 C338.198,339.746 338.869,339.074 338.869,338.246 L338.869,134.198 C338.869,133.37 338.198,132.698 337.369,132.698 L337.369,132.698 Z" id="Fill-58"></path>
            <path d="M284.21,333.748 L331.21,333.748 C332.039,333.748 332.71,333.076 332.71,332.248 C332.71,331.42 332.039,330.748 331.21,330.748 L284.21,330.748 C283.381,330.748 282.71,331.42 282.71,332.248 C282.71,333.076 283.381,333.748 284.21,333.748" id="Fill-59"></path>
            <path d="M284.21,325.414 L331.21,325.414 C332.039,325.414 332.71,324.742 332.71,323.914 C332.71,323.086 332.039,322.414 331.21,322.414 L284.21,322.414 C283.381,322.414 282.71,323.086 282.71,323.914 C282.71,324.742 283.381,325.414 284.21,325.414" id="Fill-60"></path>
            <path d="M284.21,317.08 L331.21,317.08 C332.039,317.08 332.71,316.408 332.71,315.58 C332.71,314.752 332.039,314.08 331.21,314.08 L284.21,314.08 C283.381,314.08 282.71,314.752 282.71,315.58 C282.71,316.408 283.381,317.08 284.21,317.08" id="Fill-61"></path>
            <path d="M284.21,308.746 L331.21,308.746 C332.039,308.746 332.71,308.074 332.71,307.246 C332.71,306.418 332.039,305.746 331.21,305.746 L284.21,305.746 C283.381,305.746 282.71,306.418 282.71,307.246 C282.71,308.074 283.381,308.746 284.21,308.746" id="Fill-62"></path>
            <path d="M284.21,300.412 L331.21,300.412 C332.039,300.412 332.71,299.74 332.71,298.912 C332.71,298.084 332.039,297.412 331.21,297.412 L284.21,297.412 C283.381,297.412 282.71,298.084 282.71,298.912 C282.71,299.74 283.381,300.412 284.21,300.412" id="Fill-63"></path>
            <path d="M284.21,292.078 L331.21,292.078 C332.039,292.078 332.71,291.406 332.71,290.578 C332.71,289.75 332.039,289.078 331.21,289.078 L284.21,289.078 C283.381,289.078 282.71,289.75 282.71,290.578 C282.71,291.406 283.381,292.078 284.21,292.078" id="Fill-64"></path>
            <path d="M284.21,283.744 L331.21,283.744 C332.039,283.744 332.71,283.072 332.71,282.244 C332.71,281.416 332.039,280.744 331.21,280.744 L284.21,280.744 C283.381,280.744 282.71,281.416 282.71,282.244 C282.71,283.072 283.381,283.744 284.21,283.744" id="Fill-65"></path>
            <path d="M284.21,275.41 L331.21,275.41 C332.039,275.41 332.71,274.738 332.71,273.91 C332.71,273.082 332.039,272.41 331.21,272.41 L284.21,272.41 C283.381,272.41 282.71,273.082 282.71,273.91 C282.71,274.738 283.381,275.41 284.21,275.41" id="Fill-66"></path>
            <path d="M284.21,267.076 L331.21,267.076 C332.039,267.076 332.71,266.404 332.71,265.576 C332.71,264.748 332.039,264.076 331.21,264.076 L284.21,264.076 C283.381,264.076 282.71,264.748 282.71,265.576 C282.71,266.404 283.381,267.076 284.21,267.076" id="Fill-67"></path>
            <path d="M284.21,258.742 L331.21,258.742 C332.039,258.742 332.71,258.07 332.71,257.242 C332.71,256.414 332.039,255.742 331.21,255.742 L284.21,255.742 C283.381,255.742 282.71,256.414 282.71,257.242 C282.71,258.07 283.381,258.742 284.21,258.742" id="Fill-68"></path>
            <path d="M284.21,250.408 L331.21,250.408 C332.039,250.408 332.71,249.736 332.71,248.908 C332.71,248.08 332.039,247.408 331.21,247.408 L284.21,247.408 C283.381,247.408 282.71,248.08 282.71,248.908 C282.71,249.736 283.381,250.408 284.21,250.408" id="Fill-69"></path>
            <path d="M290.21,242.074 L331.21,242.074 C332.039,242.074 332.71,241.402 332.71,240.574 C332.71,239.746 332.039,239.074 331.21,239.074 L290.21,239.074 C289.381,239.074 288.71,239.746 288.71,240.574 C288.71,241.402 289.381,242.074 290.21,242.074" id="Fill-70"></path>
            <path d="M296.21,233.74 L331.21,233.74 C332.039,233.74 332.71,233.068 332.71,232.24 C332.71,231.412 332.039,230.74 331.21,230.74 L296.21,230.74 C295.381,230.74 294.71,231.412 294.71,232.24 C294.71,233.068 295.381,233.74 296.21,233.74" id="Fill-71"></path>
            <path d="M302.21,225.406 L331.21,225.406 C332.039,225.406 332.71,224.734 332.71,223.906 C332.71,223.078 332.039,222.406 331.21,222.406 L302.21,222.406 C301.381,222.406 300.71,223.078 300.71,223.906 C300.71,224.734 301.381,225.406 302.21,225.406" id="Fill-72"></path>
            <path d="M309.21,217.072 L331.21,217.072 C332.039,217.072 332.71,216.4 332.71,215.572 C332.71,214.744 332.039,214.072 331.21,214.072 L309.21,214.072 C308.381,214.072 307.71,214.744 307.71,215.572 C307.71,216.4 308.381,217.072 309.21,217.072" id="Fill-73"></path>
            <path d="M314.21,208.738 L331.21,208.738 C332.039,208.738 332.71,208.066 332.71,207.238 C332.71,206.41 332.039,205.738 331.21,205.738 L314.21,205.738 C313.381,205.738 312.71,206.41 312.71,207.238 C312.71,208.066 313.381,208.738 314.21,208.738" id="Fill-74"></path>
            <path d="M337.369,120.015 C336.541,120.015 335.869,120.686 335.869,121.515 L335.869,125.457 C335.869,126.286 336.541,126.957 337.369,126.957 C338.198,126.957 338.869,126.286 338.869,125.457 L338.869,121.515 C338.869,120.686 338.198,120.015 337.369,120.015" id="Fill-75"></path>
            <path d="M432.395,336.592 L429.112,336.592 L429.112,139.092 C429.112,138.263 428.44,137.592 427.612,137.592 L396.979,137.592 C396.151,137.592 395.479,138.263 395.479,139.092 L395.479,336.592 L392.197,336.592 L392.197,129.922 L432.395,129.922 L432.395,336.592 L432.395,336.592 Z M426.112,336.592 L413.796,336.592 L413.796,146.95 C413.796,146.122 413.124,145.45 412.296,145.45 C411.468,145.45 410.796,146.122 410.796,146.95 L410.796,336.592 L398.479,336.592 L398.479,140.592 L426.112,140.592 L426.112,336.592 L426.112,336.592 Z M433.895,126.922 L390.697,126.922 C389.869,126.922 389.197,127.593 389.197,128.422 L389.197,338.092 C389.197,338.92 389.869,339.592 390.697,339.592 L433.895,339.592 C434.723,339.592 435.395,338.92 435.395,338.092 L435.395,128.422 C435.395,127.593 434.723,126.922 433.895,126.922 L433.895,126.922 Z" id="Fill-76"></path>
            <path d="M439.72,122.633 L384.872,122.633 C384.044,122.633 383.372,123.305 383.372,124.133 C383.372,124.962 384.044,125.633 384.872,125.633 L439.72,125.633 C440.548,125.633 441.22,124.962 441.22,124.133 C441.22,123.305 440.548,122.633 439.72,122.633" id="Fill-77"></path>
            <path d="M410.091,118.309 L414.501,118.309 L414.501,113.899 L410.091,113.899 L410.091,118.309 Z M396.321,119.809 C396.321,120.638 396.993,121.309 397.821,121.309 L426.771,121.309 C427.599,121.309 428.271,120.638 428.271,119.809 C428.271,118.98 427.599,118.309 426.771,118.309 L417.501,118.309 L417.501,112.399 C417.501,111.57 416.829,110.899 416.001,110.899 L413.796,110.899 L413.796,75.844 C413.796,75.015 413.124,74.344 412.296,74.344 C411.468,74.344 410.796,75.015 410.796,75.844 L410.796,110.899 L408.591,110.899 C407.763,110.899 407.091,111.57 407.091,112.399 L407.091,118.309 L397.821,118.309 C396.993,118.309 396.321,118.98 396.321,119.809 L396.321,119.809 Z" id="Fill-78"></path>
            <path d="M396.296,135.51 L403.296,135.51 C404.124,135.51 404.796,134.838 404.796,134.01 C404.796,133.181 404.124,132.51 403.296,132.51 L396.296,132.51 C395.468,132.51 394.796,133.181 394.796,134.01 C394.796,134.838 395.468,135.51 396.296,135.51" id="Fill-79"></path>
            <path d="M408.796,135.51 L415.796,135.51 C416.624,135.51 417.296,134.838 417.296,134.01 C417.296,133.181 416.624,132.51 415.796,132.51 L408.796,132.51 C407.968,132.51 407.296,133.181 407.296,134.01 C407.296,134.838 407.968,135.51 408.796,135.51" id="Fill-80"></path>
            <path d="M421.296,135.51 L428.296,135.51 C429.124,135.51 429.796,134.838 429.796,134.01 C429.796,133.181 429.124,132.51 428.296,132.51 L421.296,132.51 C420.468,132.51 419.796,133.181 419.796,134.01 C419.796,134.838 420.468,135.51 421.296,135.51" id="Fill-81"></path>
            <path d="M384.872,145.45 C384.044,145.45 383.372,146.122 383.372,146.95 L383.372,338.092 C383.372,338.92 384.044,339.592 384.872,339.592 C385.7,339.592 386.372,338.92 386.372,338.092 L386.372,146.95 C386.372,146.122 385.7,145.45 384.872,145.45" id="Fill-82"></path>
            <path d="M439.72,145.45 C438.892,145.45 438.22,146.122 438.22,146.95 L438.22,338.092 C438.22,338.92 438.892,339.592 439.72,339.592 C440.548,339.592 441.22,338.92 441.22,338.092 L441.22,146.95 C441.22,146.122 440.548,145.45 439.72,145.45" id="Fill-83"></path>
            <path d="M524.085,336.592 L511,336.592 L511,243.422 L514.489,243.422 L524.085,336.592 L524.085,336.592 Z M511,209.545 L514.18,240.422 L511,240.422 L511,209.545 L511,209.545 Z M508,143.178 L502.375,148.484 L502.375,139.796 L508,134.489 L508,143.178 L508,143.178 Z M508,155.988 L502.375,161.295 L502.375,152.607 L508,147.302 L508,155.988 L508,155.988 Z M508,168.802 L502.375,174.106 L502.375,165.418 L508,160.111 L508,168.802 L508,168.802 Z M508,179.09 L502.375,179.09 L502.375,178.229 L508,172.925 L508,179.09 L508,179.09 Z M508,194.427 L502.375,199.733 L502.375,191.044 L508,185.738 L508,194.427 L508,194.427 Z M508,207.239 L502.375,212.544 L502.375,203.856 L508,198.55 L508,207.239 L508,207.239 Z M508,220.052 L502.375,225.358 L502.375,216.667 L508,211.362 L508,220.052 L508,220.052 Z M508,232.865 L502.375,238.171 L502.375,229.481 L508,224.175 L508,232.865 L508,232.865 Z M508,240.422 L504.36,240.422 L508,236.988 L508,240.422 L508,240.422 Z M508,245.677 L502.375,250.982 L502.375,243.422 L508,243.422 L508,245.677 L508,245.677 Z M508,258.489 L502.375,263.796 L502.375,255.105 L508,249.8 L508,258.489 L508,258.489 Z M508,271.303 L502.375,276.608 L502.375,267.919 L508,262.612 L508,271.303 L508,271.303 Z M508,284.114 L502.375,289.421 L502.375,280.731 L508,275.426 L508,284.114 L508,284.114 Z M508,296.927 L502.375,302.233 L502.375,293.544 L508,288.237 L508,296.927 L508,296.927 Z M508,309.739 L502.375,315.046 L502.375,306.356 L508,301.05 L508,309.739 L508,309.739 Z M508,322.552 L502.375,327.858 L502.375,319.17 L508,313.863 L508,322.552 L508,322.552 Z M508,335.364 L506.698,336.592 L502.375,336.592 L502.375,331.982 L508,326.676 L508,335.364 L508,335.364 Z M502.375,182.09 L507.496,182.09 L502.375,186.921 L502.375,182.09 L502.375,182.09 Z M502.375,132.747 L505.476,132.747 L502.375,135.671 L502.375,132.747 L502.375,132.747 Z M499.375,215.978 L499.375,240.422 L496.195,240.422 L499.375,209.545 L499.375,215.978 L499.375,215.978 Z M499.375,336.592 L486.29,336.592 L495.886,243.422 L499.375,243.422 L499.375,336.592 L499.375,336.592 Z M519.817,243.422 C520.646,243.422 521.317,242.75 521.317,241.922 C521.317,241.094 520.646,240.422 519.817,240.422 L517.196,240.422 L511.188,182.09 L514.168,182.09 C514.996,182.09 515.668,181.418 515.668,180.59 C515.668,179.762 514.996,179.09 514.168,179.09 L511.189,179.09 L517.849,131.418 C517.964,130.598 517.392,129.839 516.571,129.725 C515.743,129.609 514.992,130.182 514.878,131.003 L511,158.762 L511,131.247 C511,130.418 510.328,129.747 509.5,129.747 L500.875,129.747 C500.047,129.747 499.375,130.418 499.375,131.247 L499.375,158.762 L495.497,131.003 C495.383,130.182 494.627,129.605 493.804,129.725 C492.983,129.839 492.411,130.598 492.526,131.418 L499.186,179.09 L496.207,179.09 C495.379,179.09 494.707,179.762 494.707,180.59 C494.707,181.418 495.379,182.09 496.207,182.09 L499.187,182.09 L493.179,240.422 L490.558,240.422 C489.729,240.422 489.058,241.094 489.058,241.922 C489.058,242.75 489.729,243.422 490.558,243.422 L492.87,243.422 L483.136,337.938 C483.093,338.36 483.229,338.781 483.515,339.097 C483.799,339.412 484.203,339.592 484.628,339.592 L525.747,339.592 C526.172,339.592 526.576,339.412 526.86,339.097 C527.146,338.781 527.282,338.36 527.239,337.938 L517.505,243.422 L519.817,243.422 L519.817,243.422 Z" id="Fill-84"></path>
            <path d="M494.357,104.235 L521.772,104.235 L521.318,107.777 L489.057,107.777 L488.603,104.235 L494.357,104.235 L494.357,104.235 Z M495.857,101.235 L514.518,101.235 L514.518,90.59 L495.857,90.59 L495.857,101.235 Z M520.656,112.943 L489.719,112.943 L489.44,110.777 L520.935,110.777 L520.656,112.943 L520.656,112.943 Z M519.994,118.11 L490.381,118.11 L490.103,115.943 L520.272,115.943 L519.994,118.11 L519.994,118.11 Z M519.156,124.651 L491.219,124.651 L490.765,121.11 L519.61,121.11 L519.156,124.651 L519.156,124.651 Z M488.41,126.341 C488.507,127.09 489.144,127.651 489.898,127.651 L520.477,127.651 C521.231,127.651 521.868,127.09 521.965,126.341 L524.965,102.926 C525.02,102.499 524.888,102.068 524.603,101.744 C524.317,101.421 523.907,101.235 523.477,101.235 L517.518,101.235 L517.518,89.09 C517.518,88.261 516.846,87.59 516.018,87.59 L494.357,87.59 C493.529,87.59 492.857,88.261 492.857,89.09 L492.857,101.235 L486.898,101.235 C486.468,101.235 486.058,101.421 485.772,101.744 C485.487,102.068 485.355,102.499 485.41,102.926 L488.41,126.341 L488.41,126.341 Z" id="Fill-85"></path>
            <path d="M495.857,82.499 L514.518,82.499 L514.518,80.421 L495.857,80.421 L495.857,82.499 Z M494.357,85.499 L516.018,85.499 C516.846,85.499 517.518,84.828 517.518,83.999 L517.518,78.921 C517.518,78.093 516.846,77.421 516.018,77.421 L506.688,77.421 L506.688,40.129 C506.688,39.301 506.016,38.629 505.188,38.629 C504.359,38.629 503.688,39.301 503.688,40.129 L503.688,77.421 L494.357,77.421 C493.529,77.421 492.857,78.093 492.857,78.921 L492.857,83.999 C492.857,84.828 493.529,85.499 494.357,85.499 L494.357,85.499 Z" id="Fill-86"></path>
            <path d="M610.101,336.704 L605.339,336.704 C606.901,324.185 616.559,245.33 616.111,212.821 L620.894,212.626 C621.396,245.099 611.509,325.45 610.101,336.704 L610.101,336.704 Z M597.554,336.704 C599.111,324.223 608.712,245.832 608.329,213.14 L613.112,212.944 C613.549,245.625 603.716,325.518 602.315,336.704 L597.554,336.704 L597.554,336.704 Z M589.769,336.704 C591.321,324.261 600.867,246.328 600.546,213.458 L605.33,213.263 C605.699,246.139 595.926,325.556 594.53,336.704 L589.769,336.704 L589.769,336.704 Z M586.463,298.213 C589.45,270.661 592.922,234.021 592.764,213.776 L597.547,213.581 C597.839,245.146 588.996,318.527 586.983,334.787 L586.463,298.213 L586.463,298.213 Z M585.265,214.083 L589.765,213.898 C589.869,228.168 588.159,250.661 586.094,272.327 L585.265,214.083 L585.265,214.083 Z M585.146,205.796 C585.135,204.975 584.465,204.317 583.646,204.317 L583.627,204.317 L583.513,204.318 C582.653,204.318 576.168,204.245 565.566,202.354 C569.712,198.403 582.696,189.271 611.141,193.63 C614.133,200.07 614.798,207.121 614.945,209.866 L614.551,209.882 L614.547,209.882 L614.54,209.883 L606.776,210.2 L606.771,210.2 L585.222,211.082 L585.146,205.796 L585.146,205.796 Z M568.067,336.704 C566.721,326.636 558.092,259.973 557.9,203.881 C570.292,206.627 578.907,207.181 582.167,207.291 L584.011,336.704 L568.067,336.704 L568.067,336.704 Z M617.18,175.193 C619.419,190.277 619.308,205.193 619.21,209.691 L617.948,209.743 C617.795,206.675 617.058,198.797 613.497,191.604 C613.281,191.169 612.869,190.865 612.39,190.788 C593.198,187.717 580.571,190.489 572.695,194.091 C580.448,187.366 594.236,179.001 617.18,175.193 L617.18,175.193 Z M623.385,209.969 C623.092,209.694 622.703,209.551 622.299,209.565 L622.213,209.569 C622.314,204.597 622.394,188.838 619.914,173.238 C619.784,172.422 619.021,171.864 618.203,171.991 C578.437,178.143 564.59,197.325 561.928,201.663 C560.275,201.33 558.55,200.961 556.737,200.54 C556.295,200.437 555.823,200.542 555.465,200.826 C555.106,201.111 554.897,201.543 554.897,202.001 C554.897,263.106 565.167,337.665 565.271,338.411 C565.374,339.152 566.008,339.704 566.757,339.704 L611.424,339.704 C612.179,339.704 612.816,339.143 612.912,338.394 C613.03,337.462 624.78,244.854 623.859,211.023 C623.849,210.622 623.678,210.242 623.385,209.969 L623.385,209.969 Z" id="Fill-87"></path>
            <path d="M610.237,157.377 C610.358,157.377 610.481,157.362 610.604,157.332 C612.579,156.836 614.62,156.356 616.669,155.907 C617.478,155.73 617.99,154.931 617.813,154.121 C617.636,153.313 616.844,152.796 616.026,152.978 C613.948,153.433 611.878,153.919 609.873,154.422 C609.069,154.624 608.582,155.438 608.783,156.242 C608.954,156.923 609.565,157.377 610.237,157.377" id="Fill-88"></path>
            <path d="M557.421,179.67 C557.715,180.076 558.173,180.292 558.639,180.292 C558.943,180.292 559.25,180.2 559.516,180.009 C567.191,174.471 576,169.603 585.697,165.539 C586.461,165.219 586.821,164.34 586.501,163.575 C586.181,162.812 585.303,162.452 584.537,162.771 C574.63,166.924 565.621,171.904 557.76,177.575 C557.088,178.061 556.937,178.998 557.421,179.67" id="Fill-89"></path>
            <path d="M649.331,311.242 C649.972,309.193 651.887,307.702 654.144,307.702 C656.4,307.702 658.315,309.193 658.956,311.242 L649.331,311.242 L649.331,311.242 Z M636.25,311.242 C636.891,309.193 638.806,307.702 641.063,307.702 C643.32,307.702 645.235,309.193 645.876,311.242 L636.25,311.242 L636.25,311.242 Z M654.144,304.702 C651.447,304.702 649.063,306.04 647.604,308.083 C646.144,306.04 643.759,304.702 641.063,304.702 C636.629,304.702 633.022,308.309 633.022,312.742 C633.022,313.57 633.694,314.242 634.522,314.242 L646.104,314.242 L646.104,336.886 C646.104,337.714 646.775,338.386 647.604,338.386 C648.432,338.386 649.104,337.714 649.104,336.886 L649.104,314.242 L660.684,314.242 C661.512,314.242 662.184,313.57 662.184,312.742 C662.184,308.309 658.577,304.702 654.144,304.702 L654.144,304.702 Z" id="Fill-90"></path>
            <path d="M365.728,311.242 C366.368,309.193 368.283,307.702 370.54,307.702 C372.797,307.702 374.712,309.193 375.353,311.242 L365.728,311.242 L365.728,311.242 Z M352.646,311.242 C353.287,309.193 355.202,307.702 357.459,307.702 C359.717,307.702 361.632,309.193 362.272,311.242 L352.646,311.242 L352.646,311.242 Z M370.54,304.702 C367.844,304.702 365.459,306.04 364,308.083 C362.54,306.04 360.155,304.702 357.459,304.702 C353.025,304.702 349.419,308.309 349.419,312.742 C349.419,313.57 350.091,314.242 350.919,314.242 L362.5,314.242 L362.5,336.886 C362.5,337.714 363.172,338.386 364,338.386 C364.828,338.386 365.5,337.714 365.5,336.886 L365.5,314.242 L377.08,314.242 C377.908,314.242 378.58,313.57 378.58,312.742 C378.58,308.309 374.974,304.702 370.54,304.702 L370.54,304.702 Z" id="Fill-91"></path>
            <path d="M468.188,298.242 C468.829,296.193 470.744,294.702 473.001,294.702 C475.258,294.702 477.173,296.193 477.813,298.242 L468.188,298.242 L468.188,298.242 Z M455.107,298.242 C455.748,296.193 457.663,294.702 459.92,294.702 C462.178,294.702 464.093,296.193 464.733,298.242 L455.107,298.242 L455.107,298.242 Z M473.001,291.702 C470.305,291.702 467.92,293.04 466.461,295.083 C465.001,293.04 462.616,291.702 459.92,291.702 C455.486,291.702 451.88,295.309 451.88,299.742 C451.88,300.57 452.552,301.242 453.38,301.242 L464.961,301.242 L464.961,336.886 C464.961,337.714 465.633,338.386 466.461,338.386 C467.289,338.386 467.961,337.714 467.961,336.886 L467.961,301.242 L479.541,301.242 C480.369,301.242 481.041,300.57 481.041,299.742 C481.041,295.309 477.435,291.702 473.001,291.702 L473.001,291.702 Z" id="Fill-92"></path>
        </g>
    </g>
</svg>